<svg viewBox="0 0 41 40" fill="none" xmlns="http://www.w3.org/2000/svg">
<path d="M20.3608 5.26316L12.2026 9.98013C11.5873 10.3382 11.0766 10.8522 10.7217 11.4704C10.3668 12.0887 10.1801 12.7897 10.1804 13.503V22.9477L2.02212 18.2254C1.40688 17.8686 0.896113 17.3556 0.54116 16.7382C0.186207 16.1208 -0.000410222 15.4205 3.6765e-06 14.7078V7.60818C-0.000954596 6.89539 0.185432 6.19493 0.540439 5.57739C0.895447 4.95984 1.40651 4.44705 2.02212 4.09065L8.15827 0.540806C8.7736 0.186442 9.47082 0 10.1804 0C10.89 0 11.5872 0.186442 12.2026 0.540806L20.3608 5.26316Z" fill="#BD23E2"/>
<path d="M22.3833 27.6593C21.7678 28.0162 21.0694 28.2042 20.3584 28.2042C19.6474 28.2042 18.9491 28.0162 18.3336 27.6593L10.1807 22.9477V32.3816C10.1781 33.0947 10.3638 33.7958 10.719 34.4137C11.0741 35.0315 11.5861 35.544 12.2028 35.8992L18.3336 39.449C18.9499 39.8033 19.648 39.9897 20.3584 39.9897C21.0688 39.9897 21.7669 39.8033 22.3833 39.449L28.514 35.8938C29.1306 35.5381 29.6428 35.0256 29.9988 34.408C30.3547 33.7904 30.5419 33.0895 30.5415 32.3762V22.9477L22.3833 27.6593Z" fill="#FF33CE"/>
<path d="M40.7212 7.60833V14.708C40.7195 15.4209 40.5313 16.1208 40.1755 16.7381C39.8198 17.3553 39.3088 17.8681 38.6937 18.2255L30.5408 22.9479V13.5032C30.5389 12.7896 30.3507 12.0889 29.995 11.4709C29.6393 10.8528 29.1285 10.3389 28.5133 9.98027L20.3604 5.2633L28.5133 0.540952C29.1296 0.186637 29.8277 0.000244141 30.5381 0.000244141C31.2485 0.000244141 31.9466 0.186637 32.5629 0.540952L38.6937 4.09079C39.3092 4.44776 39.8204 4.96055 40.1763 5.57786C40.5321 6.19517 40.72 6.89533 40.7212 7.60833Z" fill="#7B13F5"/>
</svg>
