<?xml version="1.0" standalone="no"?>
<!DOCTYPE svg PUBLIC "-//W3C//DTD SVG 20010904//EN"
 "http://www.w3.org/TR/2001/REC-SVG-20010904/DTD/svg10.dtd">
<svg version="1.0" xmlns="http://www.w3.org/2000/svg"
 width="22pt" height="30pt" viewBox="0 0 512.000000 512.000000"
 preserveAspectRatio="xMidYMid meet">

<g transform="translate(0.000000,512.000000) scale(0.100000,-0.100000)"
fill="#000000" stroke="none">
<path d="M2445 4786 c-72 -33 -126 -97 -162 -192 -141 -367 -160 -1080 -47
-1739 14 -82 29 -153 33 -158 4 -4 26 -1 48 7 115 41 322 46 448 11 95 -27 87
-34 112 100 120 661 104 1405 -40 1779 -54 142 -148 216 -277 216 -47 0 -79
-7 -115 -24z"/>
<path d="M2410 2377 c-88 -30 -145 -65 -207 -127 -183 -185 -190 -486 -17
-679 59 -66 116 -105 201 -138 88 -34 237 -38 323 -9 358 121 467 564 204 829
-59 60 -149 112 -228 133 -79 21 -199 17 -276 -9z"/>
<path d="M1585 1711 c-590 -217 -1170 -561 -1446 -859 -42 -45 -88 -104 -103
-132 -78 -143 -14 -325 137 -390 93 -40 256 -18 482 65 130 47 418 188 570
277 249 147 581 386 749 540 l50 45 -42 38 c-97 87 -184 232 -226 377 -13 45
-27 83 -32 85 -5 1 -67 -20 -139 -46z"/>
<path d="M3386 1748 c-3 -7 -14 -47 -26 -88 -39 -134 -129 -281 -222 -366
l-42 -37 50 -45 c109 -100 319 -260 494 -377 222 -148 347 -220 563 -325 264
-128 446 -188 602 -197 79 -5 97 -3 142 17 152 65 215 247 137 391 -16 28 -66
91 -112 140 -233 248 -698 542 -1179 748 -119 50 -384 151 -399 151 -2 0 -6
-6 -8 -12z"/>
</g>
</svg>
