<svg width="511" height="96" viewBox="0 0 511 96" fill="none" xmlns="http://www.w3.org/2000/svg">
<path d="M241.815 84.5962L236.655 82.1668L244.77 64.9056C246.06 62.1762 248.73 60.4816 251.745 60.4666C254.76 60.4666 257.445 62.1312 258.75 64.8456L267 82.0318L261.855 84.4913L253.605 67.3051C253.11 66.2553 252.21 66.1204 251.76 66.1504C251.37 66.1504 250.425 66.2703 249.93 67.3201L241.815 84.5812V84.5962Z" fill="#EADE00"/>
<path d="M227.415 76.768L222.705 73.5587L233.475 57.8122C234.135 56.8524 233.745 55.9676 233.55 55.6377C233.355 55.3077 232.785 54.5429 231.615 54.6329L212.61 56.2225L212.13 50.5388L231.135 48.9492C234.15 48.6942 236.955 50.1639 238.47 52.7583C239.985 55.3677 239.88 58.532 238.17 61.0215L227.4 76.768H227.415Z" fill="#EADE00"/>
<path d="M231.825 41.3309C231.63 41.3309 231.42 41.3309 231.225 41.3009L212.205 39.8462L212.64 34.1625L231.66 35.6172C232.815 35.7071 233.385 34.9273 233.58 34.5974C233.775 34.2675 234.15 33.3826 233.49 32.4229L222.6 16.7663L227.28 13.5121L238.17 29.1686C239.895 31.6431 240.03 34.8074 238.53 37.4168C237.135 39.8612 234.6 41.3159 231.84 41.3159L231.825 41.3309Z" fill="#EADE00"/>
<path d="M251.79 29.8134C248.79 29.8134 246.12 28.1338 244.815 25.4344L236.565 8.2482L241.71 5.78877L249.96 22.9749C250.455 24.0247 251.37 24.1447 251.805 24.1297C252.195 24.1297 253.14 24.0097 253.635 22.9599L261.75 5.69879L266.91 8.12824L258.795 25.3894C257.505 28.1188 254.835 29.8134 251.82 29.8284C251.82 29.8284 251.805 29.8284 251.79 29.8284V29.8134Z" fill="#EADE00"/>
<path d="M271.74 41.3458C268.995 41.3458 266.475 39.9212 265.08 37.5067C263.565 34.8973 263.67 31.733 265.38 29.2435L276.15 13.497L280.86 16.7063L270.09 32.4528C269.43 33.4126 269.82 34.2974 270.015 34.6273C270.21 34.9572 270.78 35.7221 271.95 35.6321L290.955 34.0425L291.435 39.7262L272.43 41.3159C272.205 41.3309 271.98 41.3458 271.755 41.3458H271.74Z" fill="#EADE00"/>
<path d="M276.3 76.753L265.41 61.0964C263.685 58.622 263.55 55.4577 265.05 52.8483C266.55 50.2389 269.34 48.7542 272.355 48.9792L291.375 50.4338L290.94 56.1176L271.92 54.6629C270.765 54.5729 270.195 55.3527 270 55.6827C269.805 56.0126 269.43 56.8974 270.09 57.8572L280.98 73.5137L276.3 76.768V76.753Z" fill="#EADE00"/>
<path d="M162.3 68.0999L162.195 74.7584H151.065V0H163.605V13.707C163.605 17.8461 163.5 22.3001 163.305 26.3492C167.145 22.3001 173.22 20.0806 179.595 20.0806C194.055 20.0806 206.19 31.403 206.19 47.8843C206.19 64.3657 194.055 75.5982 179.595 75.5982C172.62 75.5982 166.035 72.8688 162.3 68.1149V68.0999ZM177.975 64.0508C186.975 64.0508 193.545 57.4822 193.545 47.8694C193.545 38.2565 186.975 31.583 177.975 31.583C168.975 31.583 162.705 37.5517 162.705 47.8694C162.705 58.1871 169.38 64.0508 177.975 64.0508Z" fill="white"/>
<path d="M298.2 22.3151H309.33L309.435 28.7937C313.17 24.0397 319.755 21.3103 326.73 21.3103C341.19 21.3103 353.325 32.6328 353.325 49.1141C353.325 65.5955 341.19 76.828 326.73 76.828C320.355 76.828 314.295 74.6085 310.44 70.5594C310.635 74.6085 310.74 78.9575 310.74 83.0966V95.9337H298.2V22.3151ZM325.11 65.2956C334.11 65.2956 340.695 58.727 340.695 49.1141C340.695 39.5013 334.125 32.8278 325.11 32.8278C316.095 32.8278 309.84 38.7964 309.84 49.1141C309.84 59.4318 316.515 65.2956 325.11 65.2956Z" fill="white"/>
<path d="M392.16 49.1142C392.16 32.8278 404.505 21.1004 420.18 21.1004C435.855 21.1004 448.2 32.8278 448.2 49.1142C448.2 65.4005 435.855 77.2329 420.18 77.2329C404.505 77.2329 392.16 65.4005 392.16 49.1142ZM420.18 65.4006C428.985 65.4006 435.66 58.727 435.66 49.1142C435.66 39.5013 428.985 32.8278 420.18 32.8278C411.375 32.8278 404.7 39.5013 404.7 49.1142C404.7 58.727 411.375 65.4006 420.18 65.4006Z" fill="white"/>
<path d="M455.235 22.1501H466.365L466.47 28.6286C470.205 23.8747 476.79 21.1453 483.765 21.1453C498.225 21.1453 510.36 32.4678 510.36 48.9492C510.36 65.4305 498.225 76.663 483.765 76.663C477.39 76.663 471.33 74.4435 467.475 70.3944C467.67 74.4435 467.775 78.7925 467.775 82.9316V95.7688H455.235V22.1501ZM482.145 65.1305C491.145 65.1305 497.715 58.562 497.715 48.9492C497.715 39.3363 491.145 32.6628 482.145 32.6628C473.145 32.6628 466.875 38.6315 466.875 48.9492C466.875 59.2669 473.55 65.1305 482.145 65.1305Z" fill="white"/>
<path d="M22.02 13.887H0V2.05457H57.645V13.887H35.73V74.7434H22.02V13.887Z" fill="white"/>
<path d="M104.595 74.7434H91.815V66.6453C88.905 72.359 82.98 75.5683 75.51 75.5683C63.78 75.5683 56.085 67.0502 56.085 54.7979V22.4051H68.76V52.0985C68.76 59.2669 73.23 64.2458 79.665 64.2458C86.835 64.2458 91.815 58.6371 91.815 50.9588V22.4051H104.595V74.7434Z" fill="white"/>
<path d="M138.03 33.0977C129.93 33.0977 126.705 40.0562 126.705 50.029V74.7435H113.925V22.4051H126.705V31.643C129.3 24.9995 133.35 22.4051 140.1 22.4051H146.235V33.0977H138.03Z" fill="white"/>
<path d="M384.465 33.0977C376.365 33.0977 373.14 40.0562 373.14 50.029V74.7435H360.36V22.4051H373.14V31.643C375.735 24.9995 379.785 22.4051 386.535 22.4051H392.67V33.0977H384.465Z" fill="white"/>
</svg>
