<svg width="511" height="96" viewBox="0 0 511 96" fill="none" xmlns="http://www.w3.org/2000/svg">
<path d="M241.815 84.5962L236.655 82.1667L244.77 64.9056C246.06 62.1762 248.73 60.4815 251.745 60.4666C254.76 60.4666 257.445 62.1312 258.75 64.8456L267 82.0318L261.855 84.4912L253.605 67.3051C253.11 66.2553 252.21 66.1203 251.76 66.1503C251.37 66.1503 250.425 66.2703 249.93 67.32L241.815 84.5812V84.5962Z" fill="#00142B"/>
<path d="M227.415 76.7679L222.705 73.5586L233.475 57.8121C234.135 56.8524 233.745 55.9676 233.55 55.6376C233.355 55.3077 232.785 54.5429 231.615 54.6328L212.61 56.2225L212.13 50.5387L231.135 48.9491C234.15 48.6942 236.955 50.1638 238.47 52.7582C239.985 55.3677 239.88 58.532 238.17 61.0214L227.4 76.7679H227.415Z" fill="#00142B"/>
<path d="M276.3 76.7529L265.41 61.0964C263.685 58.622 263.55 55.4577 265.05 52.8483C266.55 50.2388 269.34 48.7542 272.355 48.9791L291.375 50.4338L290.94 56.1175L271.92 54.6629C270.765 54.5729 270.195 55.3527 270 55.6826C269.805 56.0126 269.43 56.8974 270.09 57.8571L280.98 73.5137L276.3 76.7679V76.7529Z" fill="#00142B"/>
<path d="M231.825 41.3308C231.63 41.3308 231.42 41.3308 231.225 41.3008L212.205 39.8461L212.64 34.1624L231.66 35.6171C232.815 35.707 233.385 34.9272 233.58 34.5973C233.775 34.2673 234.15 33.3825 233.49 32.4228L222.6 16.7662L227.28 13.512L238.17 29.1685C239.895 31.6429 240.03 34.8072 238.53 37.4167C237.135 39.8611 234.6 41.3158 231.84 41.3158L231.825 41.3308Z" fill="#00142B"/>
<path d="M251.79 29.8134C248.79 29.8134 246.12 28.1338 244.815 25.4344L236.565 8.24816L241.71 5.78871L249.96 22.9749C250.455 24.0246 251.37 24.1446 251.805 24.1296C252.195 24.1296 253.14 24.0097 253.635 22.9599L261.75 5.69873L266.91 8.12818L258.795 25.3893C257.505 28.1187 254.835 29.8134 251.82 29.8284C251.82 29.8284 251.805 29.8284 251.79 29.8284V29.8134Z" fill="#00142B"/>
<path d="M271.74 41.3458C268.995 41.3458 266.475 39.9211 265.08 37.5066C263.565 34.8972 263.67 31.7329 265.38 29.2435L276.15 13.497L280.86 16.7063L270.09 32.4528C269.43 33.4126 269.82 34.2974 270.015 34.6273C270.21 34.9572 270.78 35.722 271.95 35.6321L290.955 34.0424L291.435 39.7262L272.43 41.3158C272.205 41.3308 271.98 41.3458 271.755 41.3458H271.74Z" fill="#00142B"/>
<path d="M162.3 68.0999L162.195 74.7584H151.065V0H163.605V13.707C163.605 17.846 163.5 22.3 163.305 26.3491C167.145 22.3 173.22 20.0805 179.595 20.0805C194.055 20.0805 206.19 31.403 206.19 47.8843C206.19 64.3657 194.055 75.5982 179.595 75.5982C172.62 75.5982 166.035 72.8688 162.3 68.1149V68.0999ZM177.975 64.0508C186.975 64.0508 193.545 57.4822 193.545 47.8694C193.545 38.2565 186.975 31.583 177.975 31.583C168.975 31.583 162.705 37.5517 162.705 47.8694C162.705 58.1871 169.38 64.0508 177.975 64.0508Z" fill="#00142B"/>
<path d="M298.2 22.315H309.33L309.435 28.7936C313.17 24.0397 319.755 21.3103 326.73 21.3103C341.19 21.3103 353.325 32.6327 353.325 49.1141C353.325 65.5954 341.19 76.8279 326.73 76.8279C320.355 76.8279 314.295 74.6084 310.44 70.5593C310.635 74.6084 310.74 78.9574 310.74 83.0965V95.9337H298.2V22.315ZM325.11 65.2955C334.11 65.2955 340.695 58.7269 340.695 49.1141C340.695 39.5012 334.125 32.8277 325.11 32.8277C316.095 32.8277 309.84 38.7964 309.84 49.1141C309.84 59.4318 316.515 65.2955 325.11 65.2955Z" fill="#00142B"/>
<path d="M392.16 49.1141C392.16 32.8277 404.505 21.1003 420.18 21.1003C435.855 21.1003 448.2 32.8277 448.2 49.1141C448.2 65.4005 435.855 77.2328 420.18 77.2328C404.505 77.2328 392.16 65.4005 392.16 49.1141ZM420.18 65.4005C428.985 65.4005 435.66 58.727 435.66 49.1141C435.66 39.5012 428.985 32.8277 420.18 32.8277C411.375 32.8277 404.7 39.5012 404.7 49.1141C404.7 58.727 411.375 65.4005 420.18 65.4005Z" fill="#00142B"/>
<path d="M455.235 22.1651H466.365L466.47 28.6436C470.205 23.8897 476.79 21.1603 483.765 21.1603C498.225 21.1603 510.36 32.4828 510.36 48.9641C510.36 65.4454 498.225 76.678 483.765 76.678C477.39 76.678 471.33 74.4584 467.475 70.4093C467.67 74.4584 467.775 78.8075 467.775 82.9466V95.7837H455.235V22.1651ZM482.145 65.1455C491.145 65.1455 497.715 58.577 497.715 48.9641C497.715 39.3512 491.145 32.6777 482.145 32.6777C473.145 32.6777 466.875 38.6464 466.875 48.9641C466.875 59.2818 473.55 65.1455 482.145 65.1455Z" fill="#00142B"/>
<path d="M22.02 13.9019H0V2.06952H57.645V13.9019H35.73V74.7584H22.02V13.9019Z" fill="#00142B"/>
<path d="M104.595 74.7434H91.815V66.6452C88.905 72.3589 82.98 75.5682 75.51 75.5682C63.78 75.5682 56.085 67.0501 56.085 54.7978V22.405H68.76V52.0984C68.76 59.2668 73.23 64.2457 79.665 64.2457C86.835 64.2457 91.815 58.6369 91.815 50.9586V22.405H104.595V74.7434Z" fill="#00142B"/>
<path d="M138.03 33.1126C129.93 33.1126 126.705 40.0711 126.705 50.0438V74.7584H113.925V22.42H126.705V31.6579C129.3 25.0144 133.35 22.42 140.1 22.42H146.235V33.1126H138.03Z" fill="#00142B"/>
<path d="M384.465 33.1126C376.365 33.1126 373.14 40.0711 373.14 50.0438V74.7584H360.36V22.42H373.14V31.6579C375.735 25.0144 379.785 22.42 386.535 22.42H392.67V33.1126H384.465Z" fill="#00142B"/>
</svg>
