<svg width="140" height="140" viewBox="0 0 140 140" fill="none" xmlns="http://www.w3.org/2000/svg">
<path d="M52.3946 139.985L43.2851 135.678L57.6297 105.067C59.8923 100.225 64.6097 97.2098 69.9335 97.195C75.2572 97.1653 80.0042 100.151 82.2964 104.978L96.8776 135.47L87.7976 139.851L73.2164 109.359C72.3291 107.503 70.7468 107.265 69.963 107.31C69.2828 107.31 67.5969 107.517 66.7244 109.389L52.3798 140L52.3946 139.985Z" fill="#00142B"/>
<path d="M26.9885 126.113L18.6775 120.41L37.6803 92.4867C38.8338 90.7935 38.1684 89.2192 37.8134 88.625C37.4585 88.0309 36.4677 86.6793 34.4122 86.8427L0.842927 89.6796L0 79.6095L33.5692 76.7728C38.8782 76.3272 43.8322 78.9115 46.5089 83.5306C49.1856 88.1498 48.9933 93.764 45.9765 98.1752L26.9737 126.098L26.9885 126.113Z" fill="#00142B"/>
<path d="M34.7671 63.2569C34.4121 63.2569 34.0572 63.257 33.7023 63.2124L0.118286 60.6429L0.887274 50.558L34.4713 53.1275C36.5121 53.276 37.5177 51.9096 37.8578 51.3155C38.1979 50.7214 38.8634 49.147 37.6951 47.4687L18.4705 19.6945L26.7371 13.9317L45.9617 41.7059C49.0081 46.1022 49.2447 51.7017 46.5976 56.3505C44.128 60.6726 39.6767 63.2569 34.7818 63.2569H34.7671Z" fill="#00142B"/>
<path d="M70.0222 42.805C64.728 42.805 60.0106 39.8344 57.7036 35.0222L43.1224 4.53001L52.2024 0.148489L66.7836 30.6408C67.6709 32.4974 69.268 32.7202 70.037 32.6904C70.7172 32.6904 72.4031 32.4825 73.2756 30.6111L87.6202 0L96.7297 4.30718L82.3851 34.9183C80.1225 39.7603 75.4051 42.7753 70.0813 42.7902C70.0666 42.7902 70.037 42.7902 70.0222 42.7902V42.805Z" fill="#00142B"/>
<path d="M105.248 63.2866C100.397 63.2866 95.9607 60.7468 93.4763 56.4693C90.7997 51.8501 90.9919 46.2359 94.0087 41.8247L113.012 13.9019L121.323 19.6054L102.32 47.5281C101.166 49.2213 101.832 50.7956 102.187 51.3897C102.527 51.9838 103.532 53.3503 105.588 53.1721L139.157 50.3352L140 60.4052L106.431 63.242C106.032 63.2717 105.647 63.2866 105.248 63.2866Z" fill="#00142B"/>
<path d="M113.278 126.083L94.053 98.3089C91.0066 93.9125 90.77 88.3131 93.4171 83.6642C96.0642 79.0154 101.003 76.4013 106.312 76.8024L139.896 79.3719L139.127 89.4567L105.543 86.8873C103.488 86.7239 102.497 88.1051 102.157 88.6992C101.817 89.2933 101.151 90.8678 102.32 92.5461L121.544 120.32L113.278 126.083Z" fill="#00142B"/>
</svg>
