<svg width="140" height="140" viewBox="0 0 140 140" fill="none" xmlns="http://www.w3.org/2000/svg">
<path d="M52.4041 140L43.2949 135.689L57.6207 105.06C59.8979 100.217 64.6114 97.2097 69.9339 97.1831C75.2563 97.1831 79.9963 100.137 82.3001 104.953L96.8641 135.45L87.7815 139.814L73.2174 109.318C72.3436 107.455 70.7548 107.215 69.9604 107.269C69.2719 107.269 67.6036 107.481 66.7298 109.344L52.4041 139.973V140Z" fill="#EADE00"/>
<path d="M26.9832 126.109L18.6685 120.414L37.6811 92.4729C38.8463 90.7698 38.1577 89.1997 37.8135 88.6143C37.4693 88.0289 36.4631 86.6717 34.3976 86.8313L0.847381 89.6521L0 79.5666L33.5503 76.7459C38.8727 76.2935 43.8245 78.9013 46.499 83.505C49.1734 88.1353 48.9881 93.7502 45.9694 98.1676L26.9567 126.109H26.9832Z" fill="#EADE00"/>
<path d="M34.7683 63.2276C34.424 63.2276 34.0533 63.2276 33.7091 63.1744L0.132423 60.5931L0.900367 50.5075L34.477 53.0888C36.516 53.2485 37.5222 51.8647 37.8665 51.2793C38.2107 50.6938 38.8727 49.1238 37.7076 47.4207L18.4831 19.6389L26.7448 13.8643L45.9694 41.6461C49.0146 46.0369 49.2529 51.6518 46.6049 56.2821C44.1422 60.6197 39.6671 63.201 34.7948 63.201L34.7683 63.2276Z" fill="#EADE00"/>
<path d="M70.0132 42.7903C64.7172 42.7903 60.0038 39.8099 57.7 35.0199L43.136 4.52381L52.2186 0.159659L66.7827 30.6557C67.6565 32.5185 69.2718 32.7314 70.0397 32.7048C70.7282 32.7048 72.3965 32.4919 73.2703 30.6291L87.596 0L96.7052 4.31096L82.3794 34.9401C80.1022 39.7833 75.3887 42.7903 70.0662 42.817C70.0662 42.817 70.0397 42.817 70.0132 42.817V42.7903Z" fill="#EADE00"/>
<path d="M105.232 63.2541C100.386 63.2541 95.9372 60.726 93.4746 56.4417C90.8001 51.8114 90.9854 46.1965 94.0041 41.779L113.017 13.8376L121.332 19.5324L102.319 47.4738C101.154 49.1769 101.842 50.7469 102.187 51.3324C102.531 51.9178 103.537 53.275 105.602 53.1153L139.153 50.2946L140 60.3801L106.45 63.2009C106.053 63.2275 105.655 63.2541 105.258 63.2541H105.232Z" fill="#EADE00"/>
<path d="M113.282 126.082L94.0572 98.3006C91.012 93.9098 90.7737 88.2949 93.4217 83.6646C96.0697 79.0343 100.995 76.3999 106.318 76.7991L139.894 79.3803L139.126 89.4659L105.55 86.8846C103.511 86.725 102.504 88.1087 102.16 88.6941C101.816 89.2796 101.154 90.8497 102.319 92.5528L121.544 120.335L113.282 126.109V126.082Z" fill="#EADE00"/>
</svg>
