<?xml version="1.0" standalone="no"?>
<!DOCTYPE svg PUBLIC "-//W3C//DTD SVG 20010904//EN"
 "http://www.w3.org/TR/2001/REC-SVG-20010904/DTD/svg10.dtd">
<svg version="1.0" xmlns="http://www.w3.org/2000/svg"
 width="700.000000pt" height="700.000000pt" viewBox="0 0 700.000000 700.000000"
 preserveAspectRatio="xMidYMid meet">
<metadata>
Created by potrace 1.14, written by Peter Selinger 2001-2017
</metadata>
<g transform="translate(0.000000,700.000000) scale(0.100000,-0.100000)"
fill="#000000" stroke="none">
<path d="M4349 6932 c-17 -37 -47 -101 -66 -142 -39 -82 -97 -205 -148 -315
-18 -38 -51 -108 -73 -155 -154 -328 -350 -746 -377 -805 -50 -110 -97 -147
-185 -146 -79 0 -130 34 -166 109 -9 20 -51 107 -92 192 -41 85 -91 191 -112
235 -20 44 -65 139 -100 210 -34 72 -81 171 -105 220 -47 99 -110 231 -233
488 l-81 168 -33 -15 c-38 -16 -411 -197 -416 -201 -4 -4 18 -52 113 -250 37
-77 84 -176 105 -220 21 -44 68 -143 105 -220 93 -194 180 -374 227 -475 205
-432 223 -464 306 -548 86 -88 194 -149 322 -183 93 -25 271 -19 360 11 179
61 307 164 392 316 19 32 70 138 115 234 98 210 158 337 219 468 25 53 57 122
71 152 47 101 85 184 143 305 31 66 74 158 96 205 21 47 53 114 70 150 l31 65
-36 17 c-20 9 -94 44 -166 78 -71 34 -158 75 -193 91 l-62 28 -31 -67z"/>
<path d="M1130 6160 c-107 -76 -194 -144 -194 -152 1 -7 114 -175 251 -373
615 -887 702 -1014 712 -1033 18 -33 20 -104 4 -142 -33 -81 -105 -123 -199
-114 -33 2 -86 7 -119 9 -127 8 -222 16 -260 20 -22 2 -82 7 -134 10 -52 3
-113 8 -135 10 -23 1 -81 6 -131 10 -49 3 -110 8 -135 10 -25 2 -81 7 -125 10
-44 3 -102 8 -130 10 -27 2 -88 7 -135 10 -47 3 -105 8 -130 10 -194 17 -229
16 -228 -2 1 -17 -8 -142 -17 -245 -3 -25 -7 -86 -11 -135 -3 -48 -8 -91 -11
-95 -2 -5 2 -8 9 -9 7 0 22 -2 32 -4 11 -2 65 -6 120 -10 56 -3 124 -8 151
-10 65 -5 173 -14 255 -20 36 -3 90 -7 120 -10 30 -2 93 -7 140 -10 47 -3 105
-7 130 -10 25 -3 83 -7 130 -10 46 -4 103 -8 125 -10 22 -2 76 -6 120 -9 83
-6 205 -16 265 -22 55 -5 191 -5 235 0 160 19 335 121 437 256 106 139 150
277 144 450 -4 110 -20 176 -63 269 -22 45 -158 251 -283 426 -16 22 -64 92
-107 155 -43 63 -80 117 -83 120 -3 3 -46 63 -95 135 -48 71 -110 161 -137
200 -27 38 -69 99 -94 135 -25 36 -82 119 -127 184 -45 66 -87 120 -92 122 -6
1 -98 -60 -205 -136z"/>
<path d="M5593 6222 c-28 -42 -120 -178 -205 -302 -84 -124 -232 -342 -328
-483 -96 -142 -219 -322 -273 -400 -167 -242 -209 -355 -203 -542 12 -358 310
-655 660 -657 63 -1 174 6 276 17 19 2 73 7 120 10 47 4 101 8 120 10 19 2 76
7 125 10 50 3 101 8 115 10 14 2 66 7 115 10 50 4 106 8 125 10 19 2 73 7 120
10 47 3 96 8 110 10 14 2 66 7 115 10 50 4 106 8 125 10 19 2 78 7 130 11 52
4 102 8 110 10 8 1 23 3 33 3 18 1 18 26 2 176 -2 22 -7 81 -11 130 -4 50 -8
101 -9 115 -2 14 -3 38 -4 54 l-1 28 -87 -6 c-49 -4 -108 -9 -133 -11 -25 -2
-79 -7 -120 -10 -137 -11 -165 -14 -240 -21 -81 -7 -86 -8 -235 -18 -55 -4
-111 -9 -125 -11 -14 -2 -61 -7 -105 -10 -44 -4 -96 -8 -115 -10 -19 -2 -71
-6 -115 -10 -81 -6 -99 -8 -260 -22 -163 -14 -216 -10 -257 17 -65 44 -99 135
-75 205 6 17 53 93 106 170 152 224 210 309 221 325 5 8 28 41 50 73 22 32 85
124 140 205 105 155 193 285 353 520 53 78 97 146 97 150 0 4 -30 27 -68 52
-37 24 -69 47 -72 50 -14 14 -262 180 -270 180 -3 0 -28 -35 -57 -78z"/>
<path d="M1697 3164 c-1 -1 -38 -5 -82 -9 -44 -3 -100 -7 -125 -10 -25 -2 -79
-7 -120 -10 -41 -3 -95 -8 -120 -10 -141 -13 -172 -15 -240 -20 -41 -3 -93 -7
-115 -10 -22 -2 -76 -7 -120 -10 -44 -3 -91 -8 -105 -10 -14 -2 -70 -6 -125
-10 -55 -3 -113 -8 -130 -10 -16 -2 -59 -6 -95 -9 -67 -5 -206 -17 -250 -22
-14 -1 -35 -2 -48 -3 -22 -1 -23 -4 -18 -53 5 -52 10 -111 22 -258 4 -41 8
-88 9 -105 2 -16 3 -45 4 -63 0 -18 4 -31 9 -29 4 3 48 8 97 12 50 4 110 8
135 10 25 3 77 7 115 10 39 3 86 7 105 10 19 2 73 7 120 10 47 3 105 8 130 10
172 16 244 22 355 30 50 4 101 8 115 10 14 2 63 6 110 10 47 3 105 8 130 10
25 3 74 7 110 10 36 3 90 7 122 11 95 9 166 -24 203 -96 20 -38 25 -97 12
-135 -6 -16 -76 -127 -156 -244 -80 -118 -217 -319 -303 -445 -170 -250 -487
-717 -503 -741 -5 -8 -7 -16 -5 -19 3 -2 95 -66 204 -141 191 -130 200 -135
216 -118 10 10 66 90 125 178 128 189 242 357 299 440 23 33 44 62 49 63 4 2
7 7 7 12 0 5 40 67 89 138 250 364 405 597 427 645 88 193 79 441 -23 617
-111 192 -289 316 -493 345 -50 7 -139 13 -143 9z"/>
<path d="M5094 3140 c-220 -58 -389 -211 -470 -428 -34 -89 -39 -122 -39 -247
1 -118 15 -181 63 -283 14 -31 194 -299 400 -597 205 -297 386 -558 400 -580
15 -22 29 -42 32 -45 4 -3 46 -63 94 -133 48 -70 91 -127 96 -125 25 10 399
275 399 283 1 6 -32 57 -72 115 -121 174 -190 274 -546 789 -188 272 -346 502
-351 511 -16 30 -18 94 -3 135 26 75 96 124 170 120 69 -4 235 -16 278 -20 22
-2 78 -7 125 -10 47 -3 110 -8 140 -10 30 -2 87 -7 125 -10 39 -3 93 -7 120
-10 64 -5 193 -15 287 -21 40 -2 96 -6 123 -9 28 -2 86 -7 130 -10 44 -3 98
-8 120 -10 22 -2 86 -7 143 -11 l102 -6 1 43 c0 24 2 62 5 84 7 79 13 162 20
270 l7 110 -29 0 c-34 1 -233 15 -284 20 -19 2 -73 6 -120 10 -47 3 -110 8
-140 10 -30 3 -91 7 -135 10 -44 3 -100 7 -125 10 -25 2 -79 7 -120 10 -165
12 -217 16 -260 20 -25 2 -85 7 -135 10 -49 3 -110 8 -135 11 -25 2 -112 6
-195 9 -126 4 -162 1 -221 -15z"/>
<path d="M3395 2134 c-203 -43 -358 -142 -456 -291 -25 -37 -67 -115 -94 -173
-26 -58 -77 -165 -112 -238 -34 -74 -63 -135 -63 -137 0 -1 -26 -58 -59 -126
-32 -68 -74 -158 -94 -199 -19 -41 -54 -115 -77 -165 -51 -109 -112 -239 -150
-320 -15 -33 -49 -104 -74 -159 -25 -54 -46 -102 -46 -106 0 -4 39 -25 88 -48
127 -59 346 -163 355 -169 4 -2 18 19 31 49 13 29 45 98 71 153 78 165 121
257 143 306 12 25 46 100 77 165 31 65 88 187 127 269 38 83 86 184 105 225
20 41 54 113 75 160 132 284 146 301 259 302 72 0 130 -37 163 -106 48 -101
155 -324 225 -470 44 -93 81 -170 81 -171 0 -1 42 -90 94 -198 52 -108 106
-220 119 -249 65 -138 206 -428 210 -428 3 0 53 24 113 53 60 30 160 78 222
107 93 44 111 57 106 72 -3 10 -44 98 -91 195 -80 167 -113 237 -233 488 -26
55 -80 168 -120 250 -40 83 -87 182 -105 220 -113 241 -198 411 -226 452 -82
119 -217 218 -359 264 -62 20 -251 34 -305 23z"/>
</g>
</svg>
